<?xml version="1.0" encoding="UTF-8"?>
<svg width="51px" height="50px" viewBox="0 0 51 50" version="1.1" xmlns="http://www.w3.org/2000/svg" xmlns:xlink="http://www.w3.org/1999/xlink">
    <!-- Generator: Sketch 48.1 (47250) - http://www.bohemiancoding.com/sketch -->
    <title>Group 4 Copy</title>
    <desc>Created with Sketch.</desc>
    <defs></defs>
    <g id="详情页" stroke="none" stroke-width="1" fill="none" fill-rule="evenodd">
        <g id="Group-4-Copy" transform="translate(2.000000, 2.000000)" stroke="#333333" stroke-width="3">
            <path d="M46.2908805,22.2485388 C44.7009669,22.2485388 43.1111649,22.2433388 41.5213629,22.2509729 C40.6507198,22.2547346 40.1719498,22.7266106 40.1719498,23.5484383 C40.1719498,29.0665663 40.1706112,34.5845836 40.1699419,40.1032648 C40.1699419,41.1278941 40.1858935,42.1530765 40.1671532,43.1774845 C40.1422777,44.562908 39.538907,45.4489064 38.3563718,45.80959 C37.9690723,45.9275314 37.5486427,45.9877191 37.1426029,45.9905957 C35.4274193,46.0029873 33.7119011,45.993251 31.9964945,45.9988936 L15.1866696,45.9988936 L15.1866696,46 C13.4101339,45.9930297 11.6337098,46.0034298 9.85739715,45.9905957 C9.45135734,45.9877191 9.03070456,45.9275314 8.64351661,45.80959 C7.4608699,45.4489064 6.8577223,44.562908 6.83284679,43.1774845 C6.81399494,42.1530765 6.8299465,41.1278941 6.8299465,40.1032648 C6.82938876,34.5845836 6.82793861,29.0665663 6.82793861,23.5484383 C6.82793861,22.7266106 6.3491686,22.2547346 5.478414,22.2509729 C3.88861199,22.2433388 2.29892153,22.2485388 0.709119519,22.2485388 L0,22.2485388 C7.80466514,14.8535282 15.5757539,7.49049225 23.4522569,0.0282129852 C23.4794749,0.00697026693 23.4803673,0.000774474103 23.5,0 C23.5195211,0.000663834946 23.5300068,0.0138298947 23.54752,0.0282129852 C31.424023,7.49049225 39.1953349,14.8535282 47,22.2485388 L46.2908805,22.2485388 Z" id="Path" stroke-linecap="round" stroke-linejoin="round"></path>
            <path d="M31.4175094,30.6023725 C29.1956732,32.8885479 26.9301851,35.1321883 24.6635747,37.3738147 C23.8151891,38.2122293 23.1911958,38.2092084 22.3346731,37.3617711 C20.0686239,35.1197419 17.7731928,32.9040152 15.5847469,30.5870664 C12.5366517,27.3592001 14.1078786,22.1770603 18.3993105,21.1713655 C20.1110331,20.7701428 21.6798951,21.1691501 23.0522634,22.2653929 C23.3791915,22.5269267 23.5760458,22.5705492 23.9319549,22.2907286 C25.6854053,20.9149068 27.634748,20.6013724 29.6652615,21.5320268 C31.8333847,22.5264434 32.9213144,24.3036086 33,26.2215501 C32.9910612,28.2154585 32.451205,29.5383532 31.4175094,30.6023725 Z" id="Fill-1-Copy-2"></path>
        </g>
    </g>
</svg>